<?xml version="1.0" standalone="no"?>
<!DOCTYPE svg PUBLIC "-//W3C//DTD SVG 20010904//EN"
 "http://www.w3.org/TR/2001/REC-SVG-20010904/DTD/svg10.dtd">
<svg version="1.0" xmlns="http://www.w3.org/2000/svg"
 width="217.000000pt" height="217.000000pt" viewBox="0 0 217.000000 217.000000"
 preserveAspectRatio="xMidYMid meet">
<metadata>
Created by potrace 1.11, written by Peter Selinger 2001-2013
</metadata>
<g transform="translate(0.000000,217.000000) scale(0.100000,-0.100000)"
fill="#000000" stroke="none">
<path d="M985 2164 c-210 -33 -365 -157 -424 -338 -17 -52 -74 -337 -96 -486
-4 -25 -14 -58 -22 -73 -19 -39 -109 -145 -213 -252 -196 -204 -217 -237 -172
-278 35 -32 82 -19 191 52 35 22 75 41 88 41 20 0 23 -5 23 -34 0 -46 51 -242
88 -337 l29 -76 -59 -28 c-134 -64 -164 -183 -71 -286 20 -22 51 -44 72 -50
23 -6 129 -9 291 -7 251 3 256 3 289 27 36 26 70 90 71 134 0 47 27 32 32 -18
4 -27 16 -59 32 -80 50 -65 56 -66 355 -63 l268 3 37 29 c60 46 78 81 74 151
-5 78 -28 112 -110 155 -35 18 -64 34 -65 35 -1 0 11 36 27 78 37 95 76 238
86 313 l7 56 31 -6 c17 -4 49 -19 71 -35 97 -69 167 -88 198 -53 22 24 21 51
0 82 -9 14 -84 96 -165 183 -187 198 -235 262 -243 325 -19 132 -86 464 -103
510 -59 155 -171 258 -332 306 -55 17 -228 29 -285 20z m-14 -485 c33 -16 79
-65 79 -84 0 -3 -16 6 -35 21 -69 53 -178 42 -235 -22 -31 -36 -33 -35 -44 18
-5 22 0 31 26 52 65 48 134 54 209 15z m417 -5 c36 -21 42 -30 42 -57 0 -52
-13 -61 -37 -29 -42 57 -135 78 -206 48 -46 -19 -86 -70 -94 -119 l-6 -41 -18
54 c-15 47 -16 57 -4 69 12 12 16 12 31 0 15 -12 18 -12 22 1 9 29 81 88 119
98 50 14 98 6 151 -24z m-408 -59 c69 -36 94 -106 62 -178 -34 -77 -125 -108
-202 -69 -135 67 -85 262 68 262 24 0 56 -7 72 -15z m350 0 c128 -66 88 -249
-58 -262 -155 -13 -221 177 -90 257 39 24 107 26 148 5z m146 -83 c10 -65 -12
-129 -63 -180 -44 -44 -45 -50 -11 -88 23 -26 16 -48 -27 -74 -53 -33 -142
-23 -208 23 -16 11 -48 22 -72 25 -36 4 -53 -1 -100 -28 -99 -57 -208 -49
-244 19 -9 16 -8 22 9 31 11 6 25 20 31 31 9 19 6 25 -26 52 -45 36 -74 97
-75 151 0 43 19 116 30 116 10 0 20 -53 20 -107 0 -114 102 -192 211 -163 28
8 58 27 87 56 l44 45 48 -45 c28 -27 64 -49 89 -56 104 -28 217 61 210 166 -1
16 1 49 6 73 7 44 8 44 21 20 7 -13 16 -43 20 -67z m-661 -553 c52 -65 110
-126 128 -136 46 -25 227 -25 278 0 40 20 206 219 243 293 l23 45 33 -51 c64
-99 103 -223 121 -380 10 -88 7 -248 -7 -316 l-6 -29 -141 -1 c-120 0 -151 -4
-202 -23 -74 -27 -125 -62 -148 -101 -29 -48 -66 -42 -130 23 -43 44 -65 57
-127 78 -64 20 -94 24 -207 24 -109 0 -134 3 -139 15 -3 8 -8 72 -11 142 -11
238 39 448 140 591 l19 29 19 -43 c11 -23 62 -95 114 -160z m340 177 c45 -19
70 -58 55 -85 -20 -38 -82 -55 -108 -29 -9 9 -17 9 -36 -1 -33 -18 -92 -6
-107 20 -39 73 94 137 196 95z"/>
<path d="M901 1518 c-15 -39 13 -74 49 -63 25 8 37 50 20 70 -19 23 -59 19
-69 -7z"/>
<path d="M1200 1526 c-28 -35 11 -93 48 -70 35 22 22 84 -18 84 -10 0 -23 -7
-30 -14z"/>
<path d="M1000 1109 c0 -4 14 -16 32 -25 33 -17 89 -14 114 7 26 22 14 27 -26
12 -36 -15 -44 -15 -80 0 -22 8 -40 11 -40 6z"/>
</g>
</svg>
